<svg preserveAspectRatio="none" overflow="visible" style="display: block;" width="24" height="24" viewBox="0 0 24 24" fill="none" xmlns="http://www.w3.org/2000/svg">
<g id="globe">
<path id="Vector" d="M11.9989 2.01417C6.47593 2.01417 1.99893 6.49117 1.99893 12.0142C1.99893 17.5372 6.47593 22.0142 11.9989 22.0142C17.5219 22.0142 21.9989 17.5372 21.9989 12.0142C21.9989 6.49117 17.5219 2.01417 11.9989 2.01417ZM11.9989 4.01417C13.3189 4.01417 14.7689 7.04618 14.9899 11.0112L9.01993 11.0232C9.23993 7.05817 10.6789 4.01417 11.9989 4.01417ZM8.46793 4.81718C7.60793 6.49018 7.14793 8.70818 7.03693 11.0162L4.05695 11.0072C4.35495 8.28218 6.18993 5.99618 8.46793 4.81718ZM15.5349 4.82218C17.8129 6.00118 19.6009 8.22317 19.9459 11.0232L16.9669 11.0142C16.8729 8.61417 16.3419 6.50418 15.5349 4.82218ZM4.06293 13.0182L7.04193 12.9932C7.15293 15.3012 7.61593 17.5572 8.47193 19.2122C6.07993 18.0132 4.40693 15.6662 4.06293 13.0182ZM9.00394 13.0262L14.9739 13.0132C14.7539 16.9772 13.3189 20.0142 11.9989 20.0142C10.6789 20.0142 9.22394 16.9912 9.00394 13.0262ZM16.9719 13.0162L19.9379 13.0072C19.5939 15.6562 17.9219 18.0222 15.5309 19.2012C16.4189 17.3652 16.8609 15.3242 16.9719 13.0162Z" fill="#2A343D"/>
</g>
</svg>
